<mxfile host="65bd71144e">
    <diagram id="yGmV4a3jAjI65rgRJ6Fj" name="Page-1">
        <mxGraphModel dx="1096" dy="775" grid="0" gridSize="10" guides="1" tooltips="1" connect="1" arrows="1" fold="1" page="1" pageScale="1" pageWidth="1100" pageHeight="850" background="#FFFFFF" math="0" shadow="0">
            <root>
                <mxCell id="0"/>
                <mxCell id="1" parent="0"/>
                <mxCell id="2" value="契約" style="swimlane;fontStyle=0;childLayout=stackLayout;horizontal=1;startSize=26;horizontalStack=0;resizeParent=1;resizeParentMax=0;resizeLast=0;collapsible=1;marginBottom=0;align=center;fontSize=14;rounded=1;fillColor=#fff2cc;gradientColor=#ffd966;strokeColor=#d6b656;fontColor=#000000;" parent="1" vertex="1">
                    <mxGeometry x="176.5" y="418" width="90" height="146" as="geometry"/>
                </mxCell>
                <mxCell id="3" value="契約ID&#xa;" style="text;spacingLeft=4;spacingRight=4;overflow=hidden;rotatable=0;points=[[0,0.5],[1,0.5]];portConstraint=eastwest;fontSize=12;rounded=1;fontColor=#000000;" parent="2" vertex="1">
                    <mxGeometry y="26" width="90" height="30" as="geometry"/>
                </mxCell>
                <mxCell id="152" value="顧客ID" style="text;spacingLeft=4;spacingRight=4;overflow=hidden;rotatable=0;points=[[0,0.5],[1,0.5]];portConstraint=eastwest;fontSize=12;rounded=1;fontColor=#000000;" parent="2" vertex="1">
                    <mxGeometry y="56" width="90" height="30" as="geometry"/>
                </mxCell>
                <mxCell id="4" value="契約プランID" style="text;spacingLeft=4;spacingRight=4;overflow=hidden;rotatable=0;points=[[0,0.5],[1,0.5]];portConstraint=eastwest;fontSize=12;rounded=1;fontColor=#000000;" parent="2" vertex="1">
                    <mxGeometry y="86" width="90" height="30" as="geometry"/>
                </mxCell>
                <mxCell id="21" value="日付" style="text;spacingLeft=4;spacingRight=4;overflow=hidden;rotatable=0;points=[[0,0.5],[1,0.5]];portConstraint=eastwest;fontSize=12;rounded=1;fontColor=#000000;" parent="2" vertex="1">
                    <mxGeometry y="116" width="90" height="30" as="geometry"/>
                </mxCell>
                <mxCell id="13" value="契約請求" style="swimlane;fontStyle=0;childLayout=stackLayout;horizontal=1;startSize=26;horizontalStack=0;resizeParent=1;resizeParentMax=0;resizeLast=0;collapsible=1;marginBottom=0;align=center;fontSize=14;rounded=1;fillColor=#d5e8d4;gradientColor=#97d077;strokeColor=#82b366;fontColor=#000000;" parent="1" vertex="1">
                    <mxGeometry x="305.5" y="478" width="80" height="86" as="geometry"/>
                </mxCell>
                <mxCell id="14" value="契約ID" style="text;strokeColor=none;fillColor=none;spacingLeft=4;spacingRight=4;overflow=hidden;rotatable=0;points=[[0,0.5],[1,0.5]];portConstraint=eastwest;fontSize=12;rounded=1;fontColor=#000000;" parent="13" vertex="1">
                    <mxGeometry y="26" width="80" height="30" as="geometry"/>
                </mxCell>
                <mxCell id="15" value="請求ID" style="text;strokeColor=none;fillColor=none;spacingLeft=4;spacingRight=4;overflow=hidden;rotatable=0;points=[[0,0.5],[1,0.5]];portConstraint=eastwest;fontSize=12;rounded=1;fontColor=#000000;" parent="13" vertex="1">
                    <mxGeometry y="56" width="80" height="30" as="geometry"/>
                </mxCell>
                <mxCell id="17" value="請求" style="swimlane;fontStyle=0;childLayout=stackLayout;horizontal=1;startSize=26;horizontalStack=0;resizeParent=1;resizeParentMax=0;resizeLast=0;collapsible=1;marginBottom=0;align=center;fontSize=14;rounded=1;fillColor=#d5e8d4;gradientColor=#97d077;strokeColor=#82b366;fontColor=#000000;" parent="1" vertex="1">
                    <mxGeometry x="419.5" y="448" width="90" height="176" as="geometry"/>
                </mxCell>
                <mxCell id="18" value="請求ID" style="text;strokeColor=none;fillColor=none;spacingLeft=4;spacingRight=4;overflow=hidden;rotatable=0;points=[[0,0.5],[1,0.5]];portConstraint=eastwest;fontSize=12;rounded=1;fontColor=#000000;" parent="17" vertex="1">
                    <mxGeometry y="26" width="90" height="30" as="geometry"/>
                </mxCell>
                <mxCell id="71" value="顧客ID" style="text;strokeColor=none;fillColor=none;spacingLeft=4;spacingRight=4;overflow=hidden;rotatable=0;points=[[0,0.5],[1,0.5]];portConstraint=eastwest;fontSize=12;rounded=1;fontColor=#000000;" parent="17" vertex="1">
                    <mxGeometry y="56" width="90" height="30" as="geometry"/>
                </mxCell>
                <mxCell id="72" value="金額" style="text;strokeColor=none;fillColor=none;spacingLeft=4;spacingRight=4;overflow=hidden;rotatable=0;points=[[0,0.5],[1,0.5]];portConstraint=eastwest;fontSize=12;rounded=1;fontColor=#000000;" parent="17" vertex="1">
                    <mxGeometry y="86" width="90" height="30" as="geometry"/>
                </mxCell>
                <mxCell id="74" value="支払期限" style="text;strokeColor=none;fillColor=none;spacingLeft=4;spacingRight=4;overflow=hidden;rotatable=0;points=[[0,0.5],[1,0.5]];portConstraint=eastwest;fontSize=12;rounded=1;fontColor=#000000;" parent="17" vertex="1">
                    <mxGeometry y="116" width="90" height="30" as="geometry"/>
                </mxCell>
                <mxCell id="19" value="日付" style="text;strokeColor=none;fillColor=none;spacingLeft=4;spacingRight=4;overflow=hidden;rotatable=0;points=[[0,0.5],[1,0.5]];portConstraint=eastwest;fontSize=12;rounded=1;fontColor=#000000;" parent="17" vertex="1">
                    <mxGeometry y="146" width="90" height="30" as="geometry"/>
                </mxCell>
                <mxCell id="27" value="口振" style="swimlane;fontStyle=0;childLayout=stackLayout;horizontal=1;startSize=26;horizontalStack=0;resizeParent=1;resizeParentMax=0;resizeLast=0;collapsible=1;marginBottom=0;align=center;fontSize=14;rounded=1;fillColor=#dae8fc;gradientColor=#7ea6e0;strokeColor=#6c8ebf;fontColor=#000000;" parent="1" vertex="1">
                    <mxGeometry x="699.5" y="418" width="90" height="176" as="geometry"/>
                </mxCell>
                <mxCell id="28" value="口振ID" style="text;strokeColor=none;fillColor=none;spacingLeft=4;spacingRight=4;overflow=hidden;rotatable=0;points=[[0,0.5],[1,0.5]];portConstraint=eastwest;fontSize=12;rounded=1;fontColor=#000000;" parent="27" vertex="1">
                    <mxGeometry y="26" width="90" height="30" as="geometry"/>
                </mxCell>
                <mxCell id="73" value="口座ID" style="text;strokeColor=none;fillColor=none;spacingLeft=4;spacingRight=4;overflow=hidden;rotatable=0;points=[[0,0.5],[1,0.5]];portConstraint=eastwest;fontSize=12;rounded=1;fontColor=#000000;" parent="27" vertex="1">
                    <mxGeometry y="56" width="90" height="30" as="geometry"/>
                </mxCell>
                <mxCell id="29" value="金額" style="text;strokeColor=none;fillColor=none;spacingLeft=4;spacingRight=4;overflow=hidden;rotatable=0;points=[[0,0.5],[1,0.5]];portConstraint=eastwest;fontSize=12;rounded=1;fontColor=#000000;" parent="27" vertex="1">
                    <mxGeometry y="86" width="90" height="30" as="geometry"/>
                </mxCell>
                <mxCell id="164" value="結果コード" style="text;strokeColor=none;fillColor=none;spacingLeft=4;spacingRight=4;overflow=hidden;rotatable=0;points=[[0,0.5],[1,0.5]];portConstraint=eastwest;fontSize=12;rounded=1;fontColor=#000000;" parent="27" vertex="1">
                    <mxGeometry y="116" width="90" height="30" as="geometry"/>
                </mxCell>
                <mxCell id="30" value="日付" style="text;strokeColor=none;fillColor=none;spacingLeft=4;spacingRight=4;overflow=hidden;rotatable=0;points=[[0,0.5],[1,0.5]];portConstraint=eastwest;fontSize=12;rounded=1;fontColor=#000000;" parent="27" vertex="1">
                    <mxGeometry y="146" width="90" height="30" as="geometry"/>
                </mxCell>
                <mxCell id="32" value="顧客マスタ" style="swimlane;fontStyle=0;childLayout=stackLayout;horizontal=1;startSize=26;horizontalStack=0;resizeParent=1;resizeParentMax=0;resizeLast=0;collapsible=1;marginBottom=0;align=center;fontSize=14;rounded=1;strokeColor=#9673a6;fillColor=#e1d5e7;fontColor=#000000;" parent="1" vertex="1">
                    <mxGeometry x="415.5" y="663" width="95" height="116" as="geometry"/>
                </mxCell>
                <mxCell id="33" value="顧客ID" style="text;strokeColor=none;fillColor=none;spacingLeft=4;spacingRight=4;overflow=hidden;rotatable=0;points=[[0,0.5],[1,0.5]];portConstraint=eastwest;fontSize=12;rounded=1;fontColor=#000000;" parent="32" vertex="1">
                    <mxGeometry y="26" width="95" height="30" as="geometry"/>
                </mxCell>
                <mxCell id="122" value="氏名" style="text;strokeColor=none;fillColor=none;spacingLeft=4;spacingRight=4;overflow=hidden;rotatable=0;points=[[0,0.5],[1,0.5]];portConstraint=eastwest;fontSize=12;rounded=1;fontColor=#000000;" parent="32" vertex="1">
                    <mxGeometry y="56" width="95" height="30" as="geometry"/>
                </mxCell>
                <mxCell id="34" value="住所" style="text;strokeColor=none;fillColor=none;spacingLeft=4;spacingRight=4;overflow=hidden;rotatable=0;points=[[0,0.5],[1,0.5]];portConstraint=eastwest;fontSize=12;rounded=1;fontColor=#000000;" parent="32" vertex="1">
                    <mxGeometry y="86" width="95" height="30" as="geometry"/>
                </mxCell>
                <mxCell id="37" value="契約プランマスタ" style="swimlane;fontStyle=0;childLayout=stackLayout;horizontal=1;startSize=26;horizontalStack=0;resizeParent=1;resizeParentMax=0;resizeLast=0;collapsible=1;marginBottom=0;align=center;fontSize=14;rounded=1;fillColor=#e1d5e7;strokeColor=#9673a6;fontColor=#000000;" parent="1" vertex="1">
                    <mxGeometry x="155" y="606" width="131" height="86" as="geometry"/>
                </mxCell>
                <mxCell id="38" value="契約プランID" style="text;strokeColor=none;fillColor=none;spacingLeft=4;spacingRight=4;overflow=hidden;rotatable=0;points=[[0,0.5],[1,0.5]];portConstraint=eastwest;fontSize=12;rounded=1;fontColor=#000000;" parent="37" vertex="1">
                    <mxGeometry y="26" width="131" height="30" as="geometry"/>
                </mxCell>
                <mxCell id="39" value="価格" style="text;strokeColor=none;fillColor=none;spacingLeft=4;spacingRight=4;overflow=hidden;rotatable=0;points=[[0,0.5],[1,0.5]];portConstraint=eastwest;fontSize=12;rounded=1;fontColor=#000000;" parent="37" vertex="1">
                    <mxGeometry y="56" width="131" height="30" as="geometry"/>
                </mxCell>
                <mxCell id="45" style="edgeStyle=none;rounded=1;html=1;entryX=0.5;entryY=0;entryDx=0;entryDy=0;dashed=1;fontColor=#000000;strokeColor=#000000;" parent="1" source="42" target="2" edge="1">
                    <mxGeometry relative="1" as="geometry"/>
                </mxCell>
                <mxCell id="42" value="契約ファイル" style="shape=document;whiteSpace=wrap;html=1;boundedLbl=1;rounded=1;fillColor=#fff2cc;gradientColor=#ffd966;strokeColor=#d6b656;fontColor=#000000;" parent="1" vertex="1">
                    <mxGeometry x="161.5" y="288" width="120" height="80" as="geometry"/>
                </mxCell>
                <mxCell id="43" value="請求ファイル" style="shape=document;whiteSpace=wrap;html=1;boundedLbl=1;rounded=1;fillColor=#d5e8d4;gradientColor=#97d077;strokeColor=#82b366;fontColor=#000000;" parent="1" vertex="1">
                    <mxGeometry x="404.5" y="288" width="120" height="80" as="geometry"/>
                </mxCell>
                <mxCell id="44" value="口振返戻ファイル" style="shape=document;whiteSpace=wrap;html=1;boundedLbl=1;rounded=1;fillColor=#dae8fc;gradientColor=#7ea6e0;strokeColor=#6c8ebf;fontColor=#000000;" parent="1" vertex="1">
                    <mxGeometry x="684.5" y="288" width="120" height="80" as="geometry"/>
                </mxCell>
                <mxCell id="51" value="" style="endArrow=none;html=1;rounded=0;exitX=0;exitY=0.5;exitDx=0;exitDy=0;entryX=1;entryY=0.5;entryDx=0;entryDy=0;fontColor=#000000;strokeWidth=2;strokeColor=#000000;" parent="1" source="71" target="14" edge="1">
                    <mxGeometry relative="1" as="geometry">
                        <mxPoint x="509.5" y="460.41" as="sourcePoint"/>
                        <mxPoint x="449.5" y="460.41" as="targetPoint"/>
                    </mxGeometry>
                </mxCell>
                <mxCell id="52" value="N" style="resizable=0;html=1;align=right;verticalAlign=bottom;rounded=1;direction=south;fontColor=#000000;" parent="51" connectable="0" vertex="1">
                    <mxGeometry x="1" relative="1" as="geometry">
                        <mxPoint x="10" as="offset"/>
                    </mxGeometry>
                </mxCell>
                <mxCell id="54" value="" style="endArrow=none;html=1;rounded=0;exitX=0.5;exitY=0;exitDx=0;exitDy=0;fontColor=#000000;strokeWidth=2;strokeColor=#000000;" parent="1" source="37" edge="1">
                    <mxGeometry relative="1" as="geometry">
                        <mxPoint x="471.5" y="648" as="sourcePoint"/>
                        <mxPoint x="220.5" y="565" as="targetPoint"/>
                    </mxGeometry>
                </mxCell>
                <mxCell id="58" value="" style="endArrow=none;html=1;rounded=0;exitX=1;exitY=0.5;exitDx=0;exitDy=0;entryX=0;entryY=0.5;entryDx=0;entryDy=0;fontColor=#000000;strokeWidth=2;strokeColor=#000000;" parent="1" source="4" target="14" edge="1">
                    <mxGeometry relative="1" as="geometry">
                        <mxPoint x="249.5" y="458.9999999999999" as="sourcePoint"/>
                        <mxPoint x="289.5" y="458" as="targetPoint"/>
                    </mxGeometry>
                </mxCell>
                <mxCell id="59" value="N" style="resizable=0;html=1;align=right;verticalAlign=bottom;rounded=1;fontColor=#000000;" parent="58" connectable="0" vertex="1">
                    <mxGeometry x="1" relative="1" as="geometry">
                        <mxPoint x="-3" as="offset"/>
                    </mxGeometry>
                </mxCell>
                <mxCell id="60" value="請求口振" style="swimlane;fontStyle=0;childLayout=stackLayout;horizontal=1;startSize=26;horizontalStack=0;resizeParent=1;resizeParentMax=0;resizeLast=0;collapsible=1;marginBottom=0;align=center;fontSize=14;rounded=1;fillColor=#dae8fc;gradientColor=#7ea6e0;strokeColor=#6c8ebf;fontColor=#000000;" parent="1" vertex="1">
                    <mxGeometry x="559.5" y="418" width="90" height="86" as="geometry"/>
                </mxCell>
                <mxCell id="61" value="請求ID" style="text;strokeColor=none;fillColor=none;spacingLeft=4;spacingRight=4;overflow=hidden;rotatable=0;points=[[0,0.5],[1,0.5]];portConstraint=eastwest;fontSize=12;rounded=1;fontColor=#000000;" parent="60" vertex="1">
                    <mxGeometry y="26" width="90" height="30" as="geometry"/>
                </mxCell>
                <mxCell id="62" value="口振ID" style="text;strokeColor=none;fillColor=none;spacingLeft=4;spacingRight=4;overflow=hidden;rotatable=0;points=[[0,0.5],[1,0.5]];portConstraint=eastwest;fontSize=12;rounded=1;fontColor=#000000;" parent="60" vertex="1">
                    <mxGeometry y="56" width="90" height="30" as="geometry"/>
                </mxCell>
                <mxCell id="65" style="edgeStyle=none;rounded=1;html=1;dashed=1;entryX=0.496;entryY=0.9;entryDx=0;entryDy=0;entryPerimeter=0;exitX=0.5;exitY=0;exitDx=0;exitDy=0;fontColor=#000000;strokeColor=#000000;" parent="1" source="17" target="43" edge="1">
                    <mxGeometry relative="1" as="geometry">
                        <mxPoint x="599.5" y="358" as="sourcePoint"/>
                        <mxPoint x="439.5" y="418" as="targetPoint"/>
                    </mxGeometry>
                </mxCell>
                <mxCell id="66" style="edgeStyle=none;rounded=1;html=1;entryX=0.5;entryY=0;entryDx=0;entryDy=0;dashed=1;exitX=0.491;exitY=0.89;exitDx=0;exitDy=0;exitPerimeter=0;fontColor=#000000;strokeColor=#000000;" parent="1" source="44" target="27" edge="1">
                    <mxGeometry relative="1" as="geometry">
                        <mxPoint x="698.3199999999997" y="358" as="sourcePoint"/>
                        <mxPoint x="698.3199999999999" y="438" as="targetPoint"/>
                    </mxGeometry>
                </mxCell>
                <mxCell id="67" value="" style="endArrow=none;html=1;rounded=0;exitX=1;exitY=0.5;exitDx=0;exitDy=0;entryX=0;entryY=0.5;entryDx=0;entryDy=0;fontColor=#000000;strokeWidth=2;strokeColor=#000000;" parent="1" source="18" target="62" edge="1">
                    <mxGeometry relative="1" as="geometry">
                        <mxPoint x="679.5" y="628" as="sourcePoint"/>
                        <mxPoint x="749.5" y="618" as="targetPoint"/>
                    </mxGeometry>
                </mxCell>
                <mxCell id="68" value="N" style="resizable=0;html=1;align=right;verticalAlign=bottom;rounded=1;fontColor=#000000;" parent="67" connectable="0" vertex="1">
                    <mxGeometry x="1" relative="1" as="geometry">
                        <mxPoint x="-4" as="offset"/>
                    </mxGeometry>
                </mxCell>
                <mxCell id="69" value="" style="endArrow=none;html=1;rounded=0;entryX=1;entryY=0.5;entryDx=0;entryDy=0;exitX=0;exitY=0.5;exitDx=0;exitDy=0;fontColor=#000000;strokeWidth=2;strokeColor=#000000;" parent="1" source="28" target="61" edge="1">
                    <mxGeometry relative="1" as="geometry">
                        <mxPoint x="769.5" y="662" as="sourcePoint"/>
                        <mxPoint x="539.5" y="523" as="targetPoint"/>
                    </mxGeometry>
                </mxCell>
                <mxCell id="70" value="N" style="resizable=0;html=1;align=right;verticalAlign=bottom;rounded=1;direction=south;fontColor=#000000;" parent="69" connectable="0" vertex="1">
                    <mxGeometry x="1" relative="1" as="geometry">
                        <mxPoint x="10" as="offset"/>
                    </mxGeometry>
                </mxCell>
                <mxCell id="75" value="口座マスタ" style="swimlane;fontStyle=0;childLayout=stackLayout;horizontal=1;startSize=25;horizontalStack=0;resizeParent=1;resizeParentMax=0;resizeLast=0;collapsible=1;marginBottom=0;align=center;fontSize=14;rounded=1;strokeColor=#9673a6;fillColor=#e1d5e7;fontColor=#000000;" parent="1" vertex="1">
                    <mxGeometry x="695.5" y="664" width="100" height="145" as="geometry"/>
                </mxCell>
                <mxCell id="76" value="口座ID" style="text;strokeColor=none;fillColor=none;spacingLeft=4;spacingRight=4;overflow=hidden;rotatable=0;points=[[0,0.5],[1,0.5]];portConstraint=eastwest;fontSize=12;rounded=1;fontColor=#000000;" parent="75" vertex="1">
                    <mxGeometry y="25" width="100" height="30" as="geometry"/>
                </mxCell>
                <mxCell id="81" value="金融機関名" style="text;strokeColor=none;fillColor=none;spacingLeft=4;spacingRight=4;overflow=hidden;rotatable=0;points=[[0,0.5],[1,0.5]];portConstraint=eastwest;fontSize=12;rounded=1;fontColor=#000000;" parent="75" vertex="1">
                    <mxGeometry y="55" width="100" height="30" as="geometry"/>
                </mxCell>
                <mxCell id="85" value="口座番号" style="text;strokeColor=none;fillColor=none;spacingLeft=4;spacingRight=4;overflow=hidden;rotatable=0;points=[[0,0.5],[1,0.5]];portConstraint=eastwest;fontSize=12;rounded=1;fontColor=#000000;" parent="75" vertex="1">
                    <mxGeometry y="85" width="100" height="30" as="geometry"/>
                </mxCell>
                <mxCell id="77" value="名義" style="text;strokeColor=none;fillColor=none;spacingLeft=4;spacingRight=4;overflow=hidden;rotatable=0;points=[[0,0.5],[1,0.5]];portConstraint=eastwest;fontSize=12;rounded=1;fontColor=#000000;" parent="75" vertex="1">
                    <mxGeometry y="115" width="100" height="30" as="geometry"/>
                </mxCell>
                <mxCell id="82" value="顧客口座" style="swimlane;fontStyle=0;childLayout=stackLayout;horizontal=1;startSize=26;horizontalStack=0;resizeParent=1;resizeParentMax=0;resizeLast=0;collapsible=1;marginBottom=0;align=center;fontSize=14;rounded=1;strokeColor=#9673a6;fillColor=#e1d5e7;fontColor=#000000;" parent="1" vertex="1">
                    <mxGeometry x="560.5" y="663" width="85" height="86" as="geometry"/>
                </mxCell>
                <mxCell id="83" value="顧客ID" style="text;strokeColor=none;fillColor=none;spacingLeft=4;spacingRight=4;overflow=hidden;rotatable=0;points=[[0,0.5],[1,0.5]];portConstraint=eastwest;fontSize=12;rounded=1;fontColor=#000000;" parent="82" vertex="1">
                    <mxGeometry y="26" width="85" height="30" as="geometry"/>
                </mxCell>
                <mxCell id="84" value="口座ID" style="text;strokeColor=none;fillColor=none;spacingLeft=4;spacingRight=4;overflow=hidden;rotatable=0;points=[[0,0.5],[1,0.5]];portConstraint=eastwest;fontSize=12;rounded=1;fontColor=#000000;" parent="82" vertex="1">
                    <mxGeometry y="56" width="85" height="30" as="geometry"/>
                </mxCell>
                <mxCell id="86" value="" style="endArrow=none;html=1;rounded=0;fontColor=#000000;entryX=0;entryY=0.5;entryDx=0;entryDy=0;exitX=1;exitY=0.5;exitDx=0;exitDy=0;strokeWidth=2;strokeColor=#000000;" parent="1" source="33" target="83" edge="1">
                    <mxGeometry relative="1" as="geometry">
                        <mxPoint x="229.5" y="693" as="sourcePoint"/>
                        <mxPoint x="389.5" y="693" as="targetPoint"/>
                    </mxGeometry>
                </mxCell>
                <mxCell id="87" value="N" style="resizable=0;html=1;align=right;verticalAlign=bottom;fontColor=#000000;" parent="86" connectable="0" vertex="1">
                    <mxGeometry x="1" relative="1" as="geometry">
                        <mxPoint x="-3" as="offset"/>
                    </mxGeometry>
                </mxCell>
                <mxCell id="88" value="" style="endArrow=none;html=1;rounded=0;exitX=0;exitY=0.5;exitDx=0;exitDy=0;entryX=1;entryY=0.5;entryDx=0;entryDy=0;fontColor=#000000;strokeWidth=2;strokeColor=#000000;" parent="1" source="76" target="83" edge="1">
                    <mxGeometry relative="1" as="geometry">
                        <mxPoint x="499.5" y="788" as="sourcePoint"/>
                        <mxPoint x="409.5" y="758" as="targetPoint"/>
                    </mxGeometry>
                </mxCell>
                <mxCell id="89" value="N" style="resizable=0;html=1;align=right;verticalAlign=bottom;rounded=1;direction=south;fontColor=#000000;" parent="88" connectable="0" vertex="1">
                    <mxGeometry x="1" relative="1" as="geometry">
                        <mxPoint x="10" as="offset"/>
                    </mxGeometry>
                </mxCell>
                <mxCell id="90" value="督促" style="swimlane;fontStyle=0;childLayout=stackLayout;horizontal=1;startSize=26;horizontalStack=0;resizeParent=1;resizeParentMax=0;resizeLast=0;collapsible=1;marginBottom=0;align=center;fontSize=14;rounded=1;fillColor=#f8cecc;gradientColor=#ea6b66;strokeColor=#b85450;fontColor=#000000;" parent="1" vertex="1">
                    <mxGeometry x="859.5" y="446" width="90" height="176" as="geometry"/>
                </mxCell>
                <mxCell id="91" value="督促ID" style="text;strokeColor=none;fillColor=none;spacingLeft=4;spacingRight=4;overflow=hidden;rotatable=0;points=[[0,0.5],[1,0.5]];portConstraint=eastwest;fontSize=12;rounded=1;fontColor=#000000;" parent="90" vertex="1">
                    <mxGeometry y="26" width="90" height="30" as="geometry"/>
                </mxCell>
                <mxCell id="92" value="顧客ID" style="text;strokeColor=none;fillColor=none;spacingLeft=4;spacingRight=4;overflow=hidden;rotatable=0;points=[[0,0.5],[1,0.5]];portConstraint=eastwest;fontSize=12;rounded=1;fontColor=#000000;" parent="90" vertex="1">
                    <mxGeometry y="56" width="90" height="30" as="geometry"/>
                </mxCell>
                <mxCell id="93" value="金額" style="text;strokeColor=none;fillColor=none;spacingLeft=4;spacingRight=4;overflow=hidden;rotatable=0;points=[[0,0.5],[1,0.5]];portConstraint=eastwest;fontSize=12;rounded=1;fontColor=#000000;" parent="90" vertex="1">
                    <mxGeometry y="86" width="90" height="30" as="geometry"/>
                </mxCell>
                <mxCell id="94" value="支払期限" style="text;strokeColor=none;fillColor=none;spacingLeft=4;spacingRight=4;overflow=hidden;rotatable=0;points=[[0,0.5],[1,0.5]];portConstraint=eastwest;fontSize=12;rounded=1;fontColor=#000000;" parent="90" vertex="1">
                    <mxGeometry y="116" width="90" height="30" as="geometry"/>
                </mxCell>
                <mxCell id="95" value="日付" style="text;strokeColor=none;fillColor=none;spacingLeft=4;spacingRight=4;overflow=hidden;rotatable=0;points=[[0,0.5],[1,0.5]];portConstraint=eastwest;fontSize=12;rounded=1;fontColor=#000000;" parent="90" vertex="1">
                    <mxGeometry y="146" width="90" height="30" as="geometry"/>
                </mxCell>
                <mxCell id="96" value="督促ファイル" style="shape=document;whiteSpace=wrap;html=1;boundedLbl=1;rounded=1;fillColor=#f8cecc;gradientColor=#ea6b66;strokeColor=#b85450;fontColor=#000000;" parent="1" vertex="1">
                    <mxGeometry x="844.5" y="288" width="120" height="80" as="geometry"/>
                </mxCell>
                <mxCell id="97" style="edgeStyle=none;rounded=1;html=1;dashed=1;exitX=0.5;exitY=0;exitDx=0;exitDy=0;entryX=0.494;entryY=0.887;entryDx=0;entryDy=0;entryPerimeter=0;fontColor=#000000;strokeColor=#000000;" parent="1" source="90" target="96" edge="1">
                    <mxGeometry relative="1" as="geometry">
                        <mxPoint x="474.5" y="428" as="sourcePoint"/>
                        <mxPoint x="914.5" y="370" as="targetPoint"/>
                    </mxGeometry>
                </mxCell>
                <mxCell id="98" value="請求督促" style="swimlane;fontStyle=0;childLayout=stackLayout;horizontal=1;startSize=26;horizontalStack=0;resizeParent=1;resizeParentMax=0;resizeLast=0;collapsible=1;marginBottom=0;align=center;fontSize=14;rounded=1;fillColor=#f8cecc;gradientColor=#ea6b66;strokeColor=#b85450;fontColor=#000000;" parent="1" vertex="1">
                    <mxGeometry x="559.5" y="568" width="90" height="86" as="geometry"/>
                </mxCell>
                <mxCell id="99" value="請求ID" style="text;strokeColor=none;fillColor=none;spacingLeft=4;spacingRight=4;overflow=hidden;rotatable=0;points=[[0,0.5],[1,0.5]];portConstraint=eastwest;fontSize=12;rounded=1;fontColor=#000000;" parent="98" vertex="1">
                    <mxGeometry y="26" width="90" height="30" as="geometry"/>
                </mxCell>
                <mxCell id="100" value="督促ID" style="text;strokeColor=none;fillColor=none;spacingLeft=4;spacingRight=4;overflow=hidden;rotatable=0;points=[[0,0.5],[1,0.5]];portConstraint=eastwest;fontSize=12;rounded=1;fontColor=#000000;" parent="98" vertex="1">
                    <mxGeometry y="56" width="90" height="30" as="geometry"/>
                </mxCell>
                <mxCell id="101" value="" style="endArrow=none;html=1;rounded=0;entryX=0;entryY=0.5;entryDx=0;entryDy=0;exitX=1;exitY=0.5;exitDx=0;exitDy=0;fontColor=#000000;strokeWidth=2;strokeColor=#000000;" parent="1" source="19" target="99" edge="1">
                    <mxGeometry relative="1" as="geometry">
                        <mxPoint x="509.5" y="577" as="sourcePoint"/>
                        <mxPoint x="569.5" y="578" as="targetPoint"/>
                    </mxGeometry>
                </mxCell>
                <mxCell id="102" value="N" style="resizable=0;html=1;align=right;verticalAlign=bottom;rounded=1;fontColor=#000000;" parent="101" connectable="0" vertex="1">
                    <mxGeometry x="1" relative="1" as="geometry">
                        <mxPoint x="-4" as="offset"/>
                    </mxGeometry>
                </mxCell>
                <mxCell id="103" value="" style="endArrow=none;html=1;rounded=0;entryX=1;entryY=0.5;entryDx=0;entryDy=0;exitX=0;exitY=0.5;exitDx=0;exitDy=0;fontColor=#000000;strokeWidth=2;strokeColor=#000000;" parent="1" source="95" target="99" edge="1">
                    <mxGeometry relative="1" as="geometry">
                        <mxPoint x="844.5" y="568" as="sourcePoint"/>
                        <mxPoint x="659.5" y="469" as="targetPoint"/>
                    </mxGeometry>
                </mxCell>
                <mxCell id="104" value="N" style="resizable=0;html=1;align=right;verticalAlign=bottom;rounded=1;direction=south;fontColor=#000000;" parent="103" connectable="0" vertex="1">
                    <mxGeometry x="1" relative="1" as="geometry">
                        <mxPoint x="10" as="offset"/>
                    </mxGeometry>
                </mxCell>
                <mxCell id="125" value="月次&lt;br&gt;月末締め&lt;br&gt;翌月5日請求" style="text;html=1;strokeColor=none;fillColor=none;align=center;verticalAlign=middle;whiteSpace=wrap;rounded=0;fontColor=#000000;" parent="1" vertex="1">
                    <mxGeometry x="369.5" y="377" width="120" height="44" as="geometry"/>
                </mxCell>
                <mxCell id="126" value="16日" style="text;html=1;strokeColor=none;fillColor=none;align=center;verticalAlign=middle;whiteSpace=wrap;rounded=0;fontColor=#000000;" parent="1" vertex="1">
                    <mxGeometry x="734.5" y="372" width="60" height="30" as="geometry"/>
                </mxCell>
                <mxCell id="127" value="日次&lt;br&gt;30日超過" style="text;html=1;strokeColor=none;fillColor=none;align=center;verticalAlign=middle;whiteSpace=wrap;rounded=0;fontColor=#000000;" parent="1" vertex="1">
                    <mxGeometry x="922" y="372" width="60" height="30" as="geometry"/>
                </mxCell>
                <mxCell id="130" value="&lt;br&gt;&lt;br&gt;顧客" style="shape=actor;whiteSpace=wrap;html=1;fillColor=#fad7ac;strokeColor=#b46504;fontColor=#000000;" parent="1" vertex="1">
                    <mxGeometry x="191.5" y="88" width="60" height="50" as="geometry"/>
                </mxCell>
                <mxCell id="132" value="&lt;br&gt;&lt;br&gt;顧客" style="shape=actor;whiteSpace=wrap;html=1;fillColor=#fad7ac;strokeColor=#b46504;fontColor=#000000;" parent="1" vertex="1">
                    <mxGeometry x="434.5" y="88" width="60" height="50" as="geometry"/>
                </mxCell>
                <mxCell id="134" value="&lt;br&gt;&lt;br&gt;顧客" style="shape=actor;whiteSpace=wrap;html=1;fillColor=#fad7ac;strokeColor=#b46504;fontColor=#000000;" parent="1" vertex="1">
                    <mxGeometry x="874.5" y="88" width="60" height="50" as="geometry"/>
                </mxCell>
                <mxCell id="135" value="契約" style="rounded=1;whiteSpace=wrap;html=1;fillColor=#fad7ac;strokeColor=#b46504;fontColor=#000000;" parent="1" vertex="1">
                    <mxGeometry x="176.5" y="148" width="90" height="30" as="geometry"/>
                </mxCell>
                <mxCell id="137" value="請求書受け取り" style="rounded=1;whiteSpace=wrap;html=1;fillColor=#fad7ac;strokeColor=#b46504;fontColor=#000000;" parent="1" vertex="1">
                    <mxGeometry x="411" y="148" width="102" height="30" as="geometry"/>
                </mxCell>
                <mxCell id="138" value="口座振替返戻" style="rounded=1;whiteSpace=wrap;html=1;fillColor=#fad7ac;strokeColor=#b46504;fontColor=#000000;" parent="1" vertex="1">
                    <mxGeometry x="699.5" y="148" width="90" height="30" as="geometry"/>
                </mxCell>
                <mxCell id="139" value="督促状受け取り" style="rounded=1;whiteSpace=wrap;html=1;fillColor=#fad7ac;strokeColor=#b46504;fontColor=#000000;" parent="1" vertex="1">
                    <mxGeometry x="859.5" y="148" width="98" height="30" as="geometry"/>
                </mxCell>
                <mxCell id="142" value="" style="shape=step;perimeter=stepPerimeter;whiteSpace=wrap;html=1;fixedSize=1;fillColor=#fad7ac;strokeColor=#b46504;rotation=90;fontColor=#000000;" parent="1" vertex="1">
                    <mxGeometry x="200.75" y="178" width="41.5" height="80" as="geometry"/>
                </mxCell>
                <mxCell id="143" value="" style="shape=step;perimeter=stepPerimeter;whiteSpace=wrap;html=1;fixedSize=1;fillColor=#fad7ac;strokeColor=#b46504;rotation=90;fontColor=#000000;" parent="1" vertex="1">
                    <mxGeometry x="200.75" y="205.25" width="41.5" height="80" as="geometry"/>
                </mxCell>
                <mxCell id="146" value="" style="shape=step;perimeter=stepPerimeter;whiteSpace=wrap;html=1;fixedSize=1;fillColor=#fad7ac;strokeColor=#b46504;rotation=90;flipH=1;fontColor=#000000;" parent="1" vertex="1">
                    <mxGeometry x="443.75" y="178" width="41.5" height="80" as="geometry"/>
                </mxCell>
                <mxCell id="147" value="" style="shape=step;perimeter=stepPerimeter;whiteSpace=wrap;html=1;fixedSize=1;fillColor=#fad7ac;strokeColor=#b46504;rotation=90;flipH=1;fontColor=#000000;" parent="1" vertex="1">
                    <mxGeometry x="443.75" y="205.25" width="41.5" height="80" as="geometry"/>
                </mxCell>
                <mxCell id="148" value="" style="shape=step;perimeter=stepPerimeter;whiteSpace=wrap;html=1;fixedSize=1;fillColor=#fad7ac;strokeColor=#b46504;rotation=90;flipH=1;fontColor=#000000;" parent="1" vertex="1">
                    <mxGeometry x="887.75" y="178" width="41.5" height="80" as="geometry"/>
                </mxCell>
                <mxCell id="149" value="" style="shape=step;perimeter=stepPerimeter;whiteSpace=wrap;html=1;fixedSize=1;fillColor=#fad7ac;strokeColor=#b46504;rotation=90;flipH=1;fontColor=#000000;" parent="1" vertex="1">
                    <mxGeometry x="887.75" y="205.25" width="41.5" height="80" as="geometry"/>
                </mxCell>
                <mxCell id="150" value="" style="shape=step;perimeter=stepPerimeter;whiteSpace=wrap;html=1;fixedSize=1;fillColor=#fad7ac;strokeColor=#b46504;rotation=90;fontColor=#000000;" parent="1" vertex="1">
                    <mxGeometry x="723.75" y="178" width="41.5" height="80" as="geometry"/>
                </mxCell>
                <mxCell id="151" value="" style="shape=step;perimeter=stepPerimeter;whiteSpace=wrap;html=1;fixedSize=1;fillColor=#fad7ac;strokeColor=#b46504;rotation=90;fontColor=#000000;" parent="1" vertex="1">
                    <mxGeometry x="723.75" y="205.25" width="41.5" height="80" as="geometry"/>
                </mxCell>
                <mxCell id="153" value="" style="shape=mxgraph.signs.travel.bank;html=1;pointerEvents=1;fillColor=#ffe6cc;strokeColor=#d79b00;verticalLabelPosition=bottom;verticalAlign=top;align=center;" parent="1" vertex="1">
                    <mxGeometry x="706" y="77" width="77" height="66" as="geometry"/>
                </mxCell>
                <mxCell id="155" value="銀行" style="text;html=1;align=center;verticalAlign=middle;whiteSpace=wrap;rounded=0;fontSize=14;" parent="1" vertex="1">
                    <mxGeometry x="714.5" y="86" width="60" height="32" as="geometry"/>
                </mxCell>
                <mxCell id="156" value="口座振替" style="rounded=1;whiteSpace=wrap;html=1;fillColor=#fad7ac;strokeColor=#b46504;fontColor=#000000;" parent="1" vertex="1">
                    <mxGeometry x="564.5" y="148" width="90" height="30" as="geometry"/>
                </mxCell>
                <mxCell id="157" value="" style="shape=mxgraph.signs.travel.bank;html=1;pointerEvents=1;fillColor=#ffe6cc;strokeColor=#d79b00;verticalLabelPosition=bottom;verticalAlign=top;align=center;" parent="1" vertex="1">
                    <mxGeometry x="571" y="77" width="77" height="66" as="geometry"/>
                </mxCell>
                <mxCell id="158" value="銀行" style="text;html=1;align=center;verticalAlign=middle;whiteSpace=wrap;rounded=0;fontSize=14;" parent="1" vertex="1">
                    <mxGeometry x="579.5" y="86" width="60" height="32" as="geometry"/>
                </mxCell>
                <mxCell id="159" value="" style="shape=step;perimeter=stepPerimeter;whiteSpace=wrap;html=1;fixedSize=1;fillColor=#fad7ac;strokeColor=#b46504;rotation=90;flipH=1;fontColor=#000000;" parent="1" vertex="1">
                    <mxGeometry x="588.75" y="178" width="41.5" height="80" as="geometry"/>
                </mxCell>
                <mxCell id="160" value="" style="shape=step;perimeter=stepPerimeter;whiteSpace=wrap;html=1;fixedSize=1;fillColor=#fad7ac;strokeColor=#b46504;rotation=90;flipH=1;fontColor=#000000;" parent="1" vertex="1">
                    <mxGeometry x="588.75" y="205.25" width="41.5" height="80" as="geometry"/>
                </mxCell>
                <mxCell id="161" value="口振ファイル" style="shape=document;whiteSpace=wrap;html=1;boundedLbl=1;rounded=1;fillColor=#dae8fc;strokeColor=#6c8ebf;gradientColor=#7ea6e0;" parent="1" vertex="1">
                    <mxGeometry x="549.5" y="288" width="120" height="80" as="geometry"/>
                </mxCell>
                <mxCell id="162" style="edgeStyle=none;rounded=1;html=1;dashed=1;entryX=0.538;entryY=0.812;entryDx=0;entryDy=0;entryPerimeter=0;exitX=0.5;exitY=0;exitDx=0;exitDy=0;fontColor=#000000;strokeColor=#000000;" parent="1" source="27" target="161" edge="1">
                    <mxGeometry relative="1" as="geometry">
                        <mxPoint x="474.5" y="428" as="sourcePoint"/>
                        <mxPoint x="474.5" y="370" as="targetPoint"/>
                    </mxGeometry>
                </mxCell>
                <mxCell id="163" value="月次&lt;br&gt;月末締め&lt;br&gt;翌月15日引落" style="text;html=1;strokeColor=none;fillColor=none;align=center;verticalAlign=middle;whiteSpace=wrap;rounded=0;fontColor=#000000;" parent="1" vertex="1">
                    <mxGeometry x="576.5" y="368" width="120" height="44" as="geometry"/>
                </mxCell>
                <mxCell id="165" value="光回線（&lt;span style=&quot;background-color: transparent;&quot;&gt;契約、請求、&lt;/span&gt;&lt;span style=&quot;background-color: transparent;&quot;&gt;口座振替、督促）&lt;/span&gt;" style="text;html=1;align=center;verticalAlign=middle;whiteSpace=wrap;rounded=0;fontSize=20;" parent="1" vertex="1">
                    <mxGeometry x="170" y="18" width="398" height="43" as="geometry"/>
                </mxCell>
                <mxCell id="166" value="　" style="text;html=1;strokeColor=none;fillColor=none;align=center;verticalAlign=middle;whiteSpace=wrap;rounded=0;fontColor=#000000;" vertex="1" parent="1">
                    <mxGeometry x="124" y="377" width="60" height="30" as="geometry"/>
                </mxCell>
            </root>
        </mxGraphModel>
    </diagram>
</mxfile>